<?xml version="1.0" standalone="no"?><!DOCTYPE svg PUBLIC "-//W3C//DTD SVG 1.1//EN" "http://www.w3.org/Graphics/SVG/1.1/DTD/svg11.dtd"><svg t="1563594377722" class="icon" viewBox="0 0 1024 1024" version="1.1" xmlns="http://www.w3.org/2000/svg" p-id="769" xmlns:xlink="http://www.w3.org/1999/xlink" width="200" height="200"><defs><style type="text/css"></style></defs><path d="M297.984 502.784c0-26.112-9.728-50.176-26.112-68.096l391.168-391.168c9.728-9.728 9.728-26.112 0-35.84-9.728-9.728-26.112-9.728-35.84 0L228.352 406.016c-10.24-3.072-20.48-5.12-31.744-5.12-50.688 0-93.184 37.376-100.352 86.016l202.24 202.24-0.512-186.368z m-101.376 25.088c-13.824 0-25.6-11.264-25.6-25.6 0-13.824 11.264-25.6 25.6-25.6 13.824 0 25.6 11.264 25.6 25.6-0.512 14.336-11.776 25.6-25.6 25.6z m101.376 233.472l-203.264-203.776v93.696l203.264 203.264v-93.184z" fill="#e0fcec" p-id="770"></path><path d="M297.984 998.4v-72.192l-203.264-203.264v93.184L302.08 1024h701.44c6.144-8.192 12.8-16.896 18.432-25.6H297.984z" fill="#e0fcec" p-id="771"></path><path d="M230.4 1024l-135.68-135.68V998.4H2.048c6.144 8.704 12.288 16.896 18.432 25.6h209.92z" fill="#e0fcec" p-id="772"></path><path d="M631.808 503.808c48.64-6.656 89.088-6.656 133.632 0 30.72 6.656 61.44 11.776 91.648 19.968 22.016 6.144 38.4 21.504 46.08 44.544 12.8 36.352 25.6 72.704 39.936 108.544 2.56 6.144 10.24 14.848 14.336 14.336 29.184-3.072 43.008 12.8 51.712 36.864 2.048 7.168 1.024 14.848 0 19.456-12.288 3.584-24.576 6.656-35.84 9.728 1.536 12.8 4.608 25.6 4.608 38.4 0.512 58.88 1.024 117.248-0.512 176.128 0 10.24-6.144 26.624-10.24 29.184-4.096 6.656-92.672 6.656-99.84 1.536-23.04-14.848-8.704-39.936-16.384-60.416h-301.568c-5.632 21.504-9.216 57.856-16.384 60.416-15.36 6.144-97.792 6.144-102.4 0-6.144-4.608-10.24-22.016-11.264-33.792-1.536-24.576-0.512-49.664-0.512-74.752l1.536-138.752c-8.704-2.048-20.992-5.632-33.28-8.704-0.512-4.608-1.536-9.728 0-15.872 8.704-25.6 20.992-45.056 53.248-40.96 4.096 0.512 11.264-7.68 13.312-13.312 10.752-28.672 22.528-57.344 30.72-87.04 13.312-49.664 49.152-69.632 94.72-78.848 17.92-1.536 35.328-4.096 52.736-6.656z m-137.728 196.608c138.752 28.672 271.36 29.184 408.064 0-11.264-35.328-23.04-66.56-31.744-98.816-7.68-27.648-25.088-40.96-51.712-42.496-64.512-3.072-129.536-5.12-194.048-5.632-21.504 0-43.008 5.12-64 9.728-8.704 2.048-19.968 8.704-23.04 15.872-15.36 39.424-28.16 78.848-43.52 121.344z m26.624 150.528c0-1.024 0 0.512 0 0 11.264 0 22.528-0.512 33.28-3.072 7.68-2.048 17.408-8.192 19.968-14.848 1.536-4.608-5.632-16.896-11.776-19.456-25.088-11.776-51.2-22.528-77.824-31.232-13.312-4.096-28.16-3.584-32.256 15.36-6.144 27.648-0.512 43.008 19.968 47.104 15.872 3.584 32.256 4.096 48.64 6.144z m359.424 0c14.336-1.536 32.256-2.56 49.152-6.144 23.04-5.12 18.432-25.088 17.92-41.472-0.512-14.336-9.216-25.088-22.016-20.992-32.256 9.728-64 21.504-93.696 36.352-13.824 6.656-8.704 25.088 6.656 28.672 12.288 2.048 25.6 2.048 41.984 3.584z" fill="#e0fcec" p-id="773"></path></svg>